<?xml version="1.0" encoding="utf-8"?>
<!-- Generator: Adobe Illustrator 25.4.1, SVG Export Plug-In . SVG Version: 6.00 Build 0)  -->
<svg version="1.1" id="Layer_1" xmlns="http://www.w3.org/2000/svg" xmlns:xlink="http://www.w3.org/1999/xlink" x="0px" y="0px"
	 viewBox="0 0 200 75" style="enable-background:new 0 0 200 75;" xml:space="preserve">
<g>
	<path d="M85.39,23.28h-49c-1.35,0-1.81-1.17-1.03-2.61l9.21-17.05C45.34,2.17,47.06,1,48.42,1h49c1.35,0,1.81,1.17,1.03,2.61
		l-9.21,17.05C88.47,22.11,86.74,23.28,85.39,23.28z"/>
	<path d="M57.17,73.58h-49c-1.35,0-1.81-1.17-1.03-2.61l9.21-17.05c0.78-1.44,2.51-2.61,3.86-2.61h49c1.35,0,1.81,1.17,1.03,2.61
		l-9.21,17.05C60.25,72.41,58.52,73.58,57.17,73.58z"/>
	<path d="M71.54,48.43h-49c-1.35,0-1.81-1.17-1.03-2.61l9.21-17.05c0.78-1.44,2.51-2.61,3.86-2.61h49c1.35,0,1.81,1.17,1.03,2.61
		L75.4,45.81C74.62,47.26,72.89,48.43,71.54,48.43z"/>
</g>
<path d="M96.36,73.58h-26.6c-2.39,0-3.21-2.04-1.83-4.56l34.29-63.31c1.38-2.52,4.44-4.56,6.84-4.56h26.6
	c2.39,0,3.21,2.04,1.83,4.56L103.2,69.02C101.82,71.54,98.76,73.58,96.36,73.58z"/>
<g>
	<path d="M136.17,73.85h-26.6c-2.39,0-3.21-2.04-1.83-4.56l34.29-63.31c1.38-2.52,4.44-4.56,6.84-4.56h26.6
		c2.39,0,3.21,2.04,1.83,4.56l-34.29,63.31C141.63,71.81,138.57,73.85,136.17,73.85z"/>
	<path d="M187.28,70.32l-7.97-55.84c-0.18-1.3-1.91-1.61-2.54-0.46l-21.55,39.52c-0.85,1.56-1.18,3.36-0.93,5.12l1.59,11.16
		c0.31,2.16,2.16,3.76,4.34,3.76h24.2C186.17,73.58,187.51,72.05,187.28,70.32L187.28,70.32z"/>
</g>
</svg>
